# xmcd
#
# Track frame offsets: 
#        150
#        20437
#        42242
#        63040
#        87967
#        112917
#        137607
#        158035
#        178320
#        200552
#
# Disc length: 3027 seconds
#
# Revision: 2
# Processed by: cddbd v1.5.2PL0 Copyright (c) Steve Scherf et al.
# Submitted via: ExactAudioCopy v1.0b3
#
DISCID=7d0bd10a
DTITLE=Thanh Tuyen, Phuong Dung - Rung La Thay Chua
DYEAR=1994
DGENRE=VN Vocal
TTITLE0=Phuong Dung - Rung la thay chua
TTITLE1=Thanh Tuyen - Dau chan ky niem
TTITLE2=Phuong Dung - Muoi nam chuyen cu
TTITLE3=Thanh Tuyen - Hay quen nhau
TTITLE4=Phuong Dung - Quan nua khuya
TTITLE5=Thanh Tuyen - Tinh bo vo
TTITLE6=Phuong Dung - Nguoi yeu co don
TTITLE7=Thanh Tuyen - Con duong xua em di
TTITLE8=Phuong Dung - Xom dem
TTITLE9=Thanh Tuyen - Noi buon hoa phuong
EXTD=Distributed by Lang Van 15101 Weststate St, Westminster CA, 92683
EXTT0=
EXTT1=
EXTT2=
EXTT3=
EXTT4=
EXTT5=
EXTT6=
EXTT7=
EXTT8=
EXTT9=
PLAYORDER=
